<?xml version="1.0" standalone="no"?>
<!DOCTYPE svg PUBLIC "-//W3C//DTD SVG 20010904//EN"
 "http://www.w3.org/TR/2001/REC-SVG-20010904/DTD/svg10.dtd">
<svg version="1.0" xmlns="http://www.w3.org/2000/svg"
 width="280.000000pt" height="280.000000pt" viewBox="0 0 280.000000 280.000000"
 preserveAspectRatio="xMidYMid meet">
<metadata>
Created by potrace 1.14, written by Peter Selinger 2001-2017
</metadata>
<g transform="translate(0.000000,280.000000) scale(0.100000,-0.100000)"
fill="#000000" stroke="none">
<path d="M790 2680 c0 -5 -15 -10 -33 -10 -40 0 -150 -35 -192 -60 -39 -24
-106 -95 -133 -140 -11 -19 -30 -72 -41 -117 -20 -78 -21 -107 -21 -676 0
-559 1 -598 20 -671 27 -108 63 -168 145 -244 121 -113 254 -155 417 -133 187
25 304 130 343 307 14 61 16 154 13 705 -4 607 -5 637 -25 699 -40 129 -94
210 -174 261 -52 33 -157 69 -201 69 -16 0 -28 5 -28 10 0 6 -20 10 -45 10
-25 0 -45 -4 -45 -10z m148 -356 c51 -14 52 -29 52 -658 0 -551 -1 -583 -20
-623 -28 -63 -70 -85 -149 -80 -56 3 -67 7 -92 34 -17 20 -30 48 -34 75 -12
82 0 1090 13 1130 33 97 130 148 230 122z"/>
<path d="M1900 2680 c0 -5 -15 -10 -32 -10 -44 0 -149 -33 -192 -59 -63 -39
-131 -124 -162 -203 l-29 -73 -3 -620 c-2 -434 0 -638 8 -680 13 -67 67 -186
103 -226 43 -47 141 -122 192 -145 72 -33 189 -48 276 -35 193 30 303 128 344
306 14 59 16 151 13 704 l-4 636 -26 77 c-40 119 -79 179 -161 241 -47 36
-159 77 -210 77 -14 0 -29 5 -32 10 -3 6 -24 10 -46 10 -21 0 -39 -4 -39 -10z
m154 -361 c45 -21 48 -65 44 -685 l-3 -570 -27 -41 c-32 -49 -78 -67 -151 -60
-63 6 -102 44 -112 109 -3 24 -5 282 -3 573 3 485 5 533 21 570 35 77 87 114
164 115 23 0 53 -5 67 -11z"/>
<path d="M448 554 c-55 -29 -77 -130 -40 -185 20 -30 99 -101 151 -134 87 -56
335 -120 581 -150 484 -58 1142 44 1278 199 28 32 31 41 31 110 0 42 -3 76 -7
76 -4 0 -13 14 -21 31 -31 69 -127 90 -197 43 -120 -82 -498 -154 -803 -154
-327 0 -702 70 -825 154 -44 30 -104 34 -148 10z"/>
</g>
</svg>
